<svg xmlns="http://www.w3.org/2000/svg" style="background-color: rgb(255, 255, 255);" width="1615px" height="1981px" xmlns:xlink="http://www.w3.org/1999/xlink" version="1.1"><defs/><g transform="translate(0.5,0.5)"><ellipse cx="989" cy="33" rx="49.50000000000001" ry="29.999999999999996" fill="#ccccff" stroke="#000000" stroke-width="2" pointer-events="none"/><g text-anchor="middle" font-size="12px"><text x="989" y="37" fill="#000000" font-family="Helvetica">IDLE</text></g><rect x="924" y="253" width="130" height="40" rx="2" ry="2" fill="#ccffcc" stroke="#000000" stroke-width="2" pointer-events="none"/><g text-anchor="middle" font-size="12px"><text x="989" y="277" fill="#000000" font-family="Helvetica">TOUCH</text></g><path d="M 961 138 C 964 135 968 133 972 133 L 1006 133 C 1010 133 1014 135 1017 138 L 1037 161 C 1038 162 1038 164 1037 165 L 1017 188 C 1014 191 1010 193 1006 193 L 972 193 C 968 193 964 191 961 188 L 941 165 C 941 164 941 162 941 161 L 961 138 Z" fill="#ffffff" stroke="#000000" stroke-width="2" stroke-miterlimit="10" pointer-events="none"/><g text-anchor="middle" font-size="12px"><text x="989" y="167" fill="#000000" font-family="Helvetica">finger down</text></g><path d="M 989 63 L 989 127" fill="none" stroke="#000000" stroke-miterlimit="10" pointer-events="none"/><path d="M 989 132 L 986 125 L 989 127 L 993 125 Z" fill="#000000" stroke="#000000" stroke-miterlimit="10" pointer-events="none"/><path d="M 989 193 L 989 247" fill="none" stroke="#000000" stroke-miterlimit="10" pointer-events="none"/><path d="M 989 252 L 985 245 L 989 247 L 992 245 Z" fill="#000000" stroke="#000000" stroke-miterlimit="10" pointer-events="none"/><path d="M 688 368 C 691 365 695 363 699 363 L 733 363 C 737 363 741 365 744 368 L 764 391 C 765 392 765 394 764 395 L 744 418 C 741 421 737 423 733 423 L 699 423 C 695 423 691 421 688 418 L 668 395 C 668 394 668 392 668 391 L 688 368 Z" fill="#ffd966" stroke="#000000" stroke-width="2" stroke-miterlimit="10" pointer-events="none"/><g text-anchor="middle" font-size="12px"><text x="716" y="397" fill="#000000" font-family="Helvetica">finger up</text></g><path d="M 943 293 L 770 369" fill="none" stroke="#000000" stroke-miterlimit="10" pointer-events="none"/><path d="M 766 371 L 771 365 L 770 369 L 773 372 Z" fill="#000000" stroke="#000000" stroke-miterlimit="10" pointer-events="none"/><path d="M 686 683 C 687 682 687 680 688 679 C 689 679 690 678 691 678 L 760 678 C 761 678 763 679 764 680 C 765 681 765 682 765 683 L 746 733 C 745 734 744 736 744 737 C 743 737 742 738 741 738 L 671 738 C 670 738 669 737 668 736 C 667 735 667 734 667 733 Z" fill="#ff6666" stroke="#000000" stroke-width="2" stroke-miterlimit="10" pointer-events="none"/><g text-anchor="middle" font-size="12px"><text x="716" y="705" fill="#000000" font-family="Helvetica">button 1</text><text x="716" y="719" fill="#000000" font-family="Helvetica">press</text></g><path d="M 1236 368 C 1238 365 1242 363 1247 363 L 1280 363 C 1285 363 1289 365 1291 368 L 1311 391 C 1312 392 1312 394 1311 395 L 1291 418 C 1289 421 1285 423 1280 423 L 1247 423 C 1242 423 1238 421 1236 418 L 1216 395 C 1215 394 1215 392 1216 391 L 1236 368 Z" fill="#99ffff" stroke="#000000" stroke-width="2" stroke-miterlimit="10" pointer-events="none"/><g text-anchor="middle" font-size="12px"><text x="1263" y="397" fill="#000000" font-family="Helvetica">timeout</text></g><path d="M 1035 293 L 1209 369" fill="none" stroke="#000000" stroke-miterlimit="10" pointer-events="none"/><path d="M 1214 371 L 1206 372 L 1209 369 L 1209 365 Z" fill="#000000" stroke="#000000" stroke-miterlimit="10" pointer-events="none"/><path d="M 1055 368 C 1057 365 1061 363 1066 363 L 1099 363 C 1104 363 1108 365 1110 368 L 1130 391 C 1131 392 1131 394 1130 395 L 1110 418 C 1108 421 1104 423 1099 423 L 1066 423 C 1061 423 1057 421 1055 418 L 1035 395 C 1034 394 1034 392 1035 391 L 1055 368 Z" fill="#67ab9f" stroke="#000000" stroke-width="2" stroke-miterlimit="10" pointer-events="none"/><g text-anchor="middle" font-size="12px"><text x="1082" y="390" fill="#000000" font-family="Helvetica">move &gt; </text><text x="1082" y="404" fill="#000000" font-family="Helvetica">threshold</text></g><path d="M 1005 293 L 1055 358" fill="none" stroke="#000000" stroke-miterlimit="10" pointer-events="none"/><path d="M 1058 362 L 1051 359 L 1055 358 L 1057 354 Z" fill="#000000" stroke="#000000" stroke-miterlimit="10" pointer-events="none"/><path d="M 866 368 C 868 365 872 363 877 363 L 910 363 C 915 363 919 365 921 368 L 941 391 C 942 392 942 394 941 395 L 921 418 C 919 421 915 423 910 423 L 877 423 C 872 423 868 421 866 418 L 846 395 C 845 394 845 392 846 391 L 866 368 Z" fill="#7ea6e0" stroke="#000000" stroke-width="2" stroke-miterlimit="10" pointer-events="none"/><g text-anchor="middle" font-size="12px"><text x="894" y="390" fill="#000000" font-family="Helvetica">second</text><text x="894" y="404" fill="#000000" font-family="Helvetica">finger down</text></g><path d="M 973 293 L 921 358" fill="none" stroke="#000000" stroke-miterlimit="10" pointer-events="none"/><path d="M 918 362 L 920 354 L 921 358 L 925 359 Z" fill="#000000" stroke="#000000" stroke-miterlimit="10" pointer-events="none"/><rect x="1004" y="688" width="130" height="40" rx="2" ry="2" fill="#ccffcc" stroke="#000000" stroke-width="2" pointer-events="none"/><g text-anchor="middle" font-size="12px"><text x="1069" y="712" fill="#000000" font-family="Helvetica">TOUCH_2</text></g><path d="M 910 423 L 1055 682" fill="none" stroke="#000000" stroke-miterlimit="10" pointer-events="none"/><path d="M 1057 687 L 1051 683 L 1055 682 L 1057 679 Z" fill="#000000" stroke="#000000" stroke-miterlimit="10" pointer-events="none"/><path d="M 946 793 C 949 790 953 788 957 788 L 991 788 C 995 788 999 790 1002 793 L 1022 816 C 1023 817 1023 819 1022 820 L 1002 843 C 999 846 995 848 991 848 L 957 848 C 953 848 949 846 946 843 L 926 820 C 926 819 926 817 926 816 L 946 793 Z" fill="#7ea6e0" stroke="#000000" stroke-width="2" stroke-miterlimit="10" pointer-events="none"/><g text-anchor="middle" font-size="12px"><text x="974" y="815" fill="#000000" font-family="Helvetica">second</text><text x="974" y="829" fill="#000000" font-family="Helvetica">finger up</text></g><path d="M 1052 728 L 1004 783" fill="none" stroke="#000000" stroke-miterlimit="10" pointer-events="none"/><path d="M 1001 787 L 1003 780 L 1004 783 L 1008 784 Z" fill="#000000" stroke="#000000" stroke-miterlimit="10" pointer-events="none"/><path d="M 863 673 C 864 672 864 670 865 669 C 866 669 867 668 868 668 L 937 668 C 938 668 940 669 941 670 C 942 671 942 672 942 673 L 923 723 C 922 724 921 726 921 727 C 920 727 919 728 918 728 L 848 728 C 847 728 846 727 845 726 C 844 725 844 724 844 723 Z" fill="#ff6666" stroke="#000000" stroke-width="2" stroke-miterlimit="10" pointer-events="none"/><g text-anchor="middle" font-size="12px"><text x="893" y="695" fill="#000000" font-family="Helvetica">button 2</text><text x="893" y="709" fill="#000000" font-family="Helvetica">press</text></g><path d="M 1215 793 C 1217 790 1221 788 1226 788 L 1259 788 C 1264 788 1268 790 1270 793 L 1290 816 C 1291 817 1291 819 1290 820 L 1270 843 C 1268 846 1264 848 1259 848 L 1226 848 C 1221 848 1217 846 1215 843 L 1195 820 C 1194 819 1194 817 1195 816 L 1215 793 Z" fill="#67ab9f" stroke="#000000" stroke-width="2" stroke-miterlimit="10" pointer-events="none"/><g text-anchor="middle" font-size="12px"><text x="1242" y="815" fill="#000000" font-family="Helvetica">move &gt; </text><text x="1242" y="829" fill="#000000" font-family="Helvetica">threshold</text></g><path d="M 1365 793 C 1367 790 1371 788 1376 788 L 1409 788 C 1414 788 1418 790 1420 793 L 1440 816 C 1441 817 1441 819 1440 820 L 1420 843 C 1418 846 1414 848 1409 848 L 1376 848 C 1371 848 1367 846 1365 843 L 1345 820 C 1344 819 1344 817 1345 816 L 1365 793 Z" fill="#99ffff" stroke="#000000" stroke-width="2" stroke-miterlimit="10" pointer-events="none"/><g text-anchor="middle" font-size="12px"><text x="1392" y="822" fill="#000000" font-family="Helvetica">timeout</text></g><path d="M 1128 728 L 1338 799" fill="none" stroke="#000000" stroke-miterlimit="10" pointer-events="none"/><path d="M 1343 801 L 1335 802 L 1338 799 L 1337 796 Z" fill="#000000" stroke="#000000" stroke-miterlimit="10" pointer-events="none"/><path d="M 1101 728 L 1190 785" fill="none" stroke="#000000" stroke-miterlimit="10" pointer-events="none"/><path d="M 1194 787 L 1186 787 L 1190 785 L 1190 781 Z" fill="#000000" stroke="#000000" stroke-miterlimit="10" pointer-events="none"/><path d="M 778 1103 C 778 1102 779 1100 780 1099 C 781 1099 782 1098 783 1098 L 851 1098 C 853 1098 854 1099 855 1100 C 856 1101 856 1102 856 1103 L 837 1153 C 837 1154 836 1156 835 1157 C 834 1157 833 1158 832 1158 L 763 1158 C 761 1158 760 1157 759 1156 C 759 1155 758 1154 759 1153 Z" fill="#ff6666" stroke="#000000" stroke-width="2" stroke-miterlimit="10" pointer-events="none"/><g text-anchor="middle" font-size="12px"><text x="808" y="1125" fill="#000000" font-family="Helvetica">button 1</text><text x="808" y="1139" fill="#000000" font-family="Helvetica">release</text></g><path d="M 863 548 C 864 547 864 545 865 544 C 866 544 867 543 868 543 L 937 543 C 938 543 940 544 941 545 C 942 546 942 547 942 548 L 923 598 C 922 599 921 601 921 602 C 920 602 919 603 918 603 L 848 603 C 847 603 846 602 845 601 C 844 600 844 599 844 598 Z" fill="#ff6666" stroke="#000000" stroke-width="2" stroke-miterlimit="10" pointer-events="none"/><g text-anchor="middle" font-size="12px"><text x="893" y="570" fill="#000000" font-family="Helvetica">button 2</text><text x="893" y="584" fill="#000000" font-family="Helvetica">release</text></g><path d="M 954 788 L 917 733" fill="none" stroke="#000000" stroke-miterlimit="10" pointer-events="none"/><path d="M 914 729 L 921 733 L 917 733 L 915 737 Z" fill="#000000" stroke="#000000" stroke-miterlimit="10" pointer-events="none"/><path d="M 893 668 L 893 609" fill="none" stroke="#000000" stroke-miterlimit="10" pointer-events="none"/><path d="M 893 604 L 897 611 L 893 609 L 890 611 Z" fill="#000000" stroke="#000000" stroke-miterlimit="10" pointer-events="none"/><path d="M 716 423 L 716 672" fill="none" stroke="#000000" stroke-miterlimit="10" pointer-events="none"/><path d="M 716 677 L 712 670 L 716 672 L 719 670 Z" fill="#000000" stroke="#000000" stroke-miterlimit="10" pointer-events="none"/><rect x="651" y="878" width="130" height="40" rx="2" ry="2" fill="#ccffcc" stroke="#000000" stroke-width="2" pointer-events="none"/><g text-anchor="middle" font-size="12px"><text x="716" y="902" fill="#000000" font-family="Helvetica">TAPPED</text></g><path d="M 780 1003 C 783 1000 787 998 791 998 L 825 998 C 829 998 833 1000 836 1003 L 856 1026 C 857 1027 857 1029 856 1030 L 836 1053 C 833 1056 829 1058 825 1058 L 791 1058 C 787 1058 783 1056 780 1053 L 760 1030 C 760 1029 760 1027 760 1026 L 780 1003 Z" fill="#99ffff" stroke="#000000" stroke-width="2" stroke-miterlimit="10" pointer-events="none"/><g text-anchor="middle" font-size="12px"><text x="808" y="1032" fill="#000000" font-family="Helvetica">timeout</text></g><path d="M 730 918 L 783 993" fill="none" stroke="#000000" stroke-miterlimit="10" pointer-events="none"/><path d="M 786 997 L 779 993 L 783 993 L 785 989 Z" fill="#000000" stroke="#000000" stroke-miterlimit="10" pointer-events="none"/><path d="M 591 1003 C 593 1000 597 998 602 998 L 635 998 C 640 998 644 1000 646 1003 L 666 1026 C 667 1027 667 1029 666 1030 L 646 1053 C 644 1056 640 1058 635 1058 L 602 1058 C 597 1058 593 1056 591 1053 L 571 1030 C 570 1029 570 1027 571 1026 L 591 1003 Z" fill="#ffd966" stroke="#000000" stroke-width="2" stroke-miterlimit="10" pointer-events="none"/><g text-anchor="middle" font-size="12px"><text x="619" y="1025" fill="#000000" font-family="Helvetica">first</text><text x="619" y="1039" fill="#000000" font-family="Helvetica">finger down</text></g><path d="M 701 918 L 645 993" fill="none" stroke="#000000" stroke-miterlimit="10" pointer-events="none"/><path d="M 642 997 L 643 989 L 645 993 L 649 994 Z" fill="#000000" stroke="#000000" stroke-miterlimit="10" pointer-events="none"/><rect x="221" y="1348" width="130" height="40" rx="2" ry="2" fill="#ccffcc" stroke="#000000" stroke-width="2" pointer-events="none"/><g text-anchor="middle" font-size="12px"><text x="286" y="1372" fill="#000000" font-family="Helvetica">DRAGGING</text></g><path d="M 259 1483 C 261 1480 265 1478 270 1478 L 303 1478 C 308 1478 312 1480 314 1483 L 334 1506 C 335 1507 335 1509 334 1510 L 314 1533 C 312 1536 308 1538 303 1538 L 270 1538 C 265 1538 261 1536 259 1533 L 239 1510 C 238 1509 238 1507 239 1506 L 259 1483 Z" fill="#ffd966" stroke="#000000" stroke-width="2" stroke-miterlimit="10" pointer-events="none"/><g text-anchor="middle" font-size="12px"><text x="286" y="1505" fill="#000000" font-family="Helvetica">first</text><text x="286" y="1519" fill="#000000" font-family="Helvetica">finger up</text></g><path d="M 255 1603 C 256 1602 256 1600 257 1599 C 258 1599 259 1598 260 1598 L 329 1598 C 330 1598 332 1599 333 1600 C 334 1601 334 1602 334 1603 L 315 1653 C 314 1654 313 1656 313 1657 C 312 1657 311 1658 310 1658 L 240 1658 C 239 1658 238 1657 237 1656 C 236 1655 236 1654 236 1653 Z" fill="#ff6666" stroke="#000000" stroke-width="2" stroke-miterlimit="10" pointer-events="none"/><g text-anchor="middle" font-size="12px"><text x="285" y="1625" fill="#000000" font-family="Helvetica">btn1</text><text x="285" y="1639" fill="#000000" font-family="Helvetica">release</text></g><path d="M 286 1388 L 286 1472" fill="none" stroke="#000000" stroke-miterlimit="10" pointer-events="none"/><path d="M 286 1477 L 283 1470 L 286 1472 L 290 1470 Z" fill="#000000" stroke="#000000" stroke-miterlimit="10" pointer-events="none"/><path d="M 286 1538 L 285 1592" fill="none" stroke="#000000" stroke-miterlimit="10" pointer-events="none"/><path d="M 285 1597 L 282 1590 L 285 1592 L 289 1590 Z" fill="#000000" stroke="#000000" stroke-miterlimit="10" pointer-events="none"/><path d="M 716 738 L 716 872" fill="none" stroke="#000000" stroke-miterlimit="10" pointer-events="none"/><path d="M 716 877 L 712 870 L 716 872 L 719 870 Z" fill="#000000" stroke="#000000" stroke-miterlimit="10" pointer-events="none"/><path d="M 808 1058 L 808 1092" fill="none" stroke="#000000" stroke-miterlimit="10" pointer-events="none"/><path d="M 808 1097 L 804 1090 L 808 1092 L 811 1090 Z" fill="#000000" stroke="#000000" stroke-miterlimit="10" pointer-events="none"/><ellipse cx="1563" cy="918" rx="49.50000000000001" ry="29.999999999999996" fill="#ccccff" stroke="#000000" stroke-width="2" pointer-events="none"/><g text-anchor="middle" font-size="12px"><text x="1563" y="922" fill="#000000" font-family="Helvetica">IDLE</text></g><path d="M 1075 793 C 1077 790 1081 788 1086 788 L 1119 788 C 1124 788 1128 790 1130 793 L 1150 816 C 1151 817 1151 819 1150 820 L 1130 843 C 1128 846 1124 848 1119 848 L 1086 848 C 1081 848 1077 846 1075 843 L 1055 820 C 1054 819 1054 817 1055 816 L 1075 793 Z" fill="#ffb570" stroke="#000000" stroke-width="2" stroke-miterlimit="10" pointer-events="none"/><g text-anchor="middle" font-size="12px"><text x="1102" y="815" fill="#000000" font-family="Helvetica">third</text><text x="1102" y="829" fill="#000000" font-family="Helvetica">finger down</text></g><path d="M 1075 728 L 1092 782" fill="none" stroke="#000000" stroke-miterlimit="10" pointer-events="none"/><path d="M 1093 787 L 1088 781 L 1092 782 L 1094 779 Z" fill="#000000" stroke="#000000" stroke-miterlimit="10" pointer-events="none"/><rect x="1038" y="1308" width="130" height="40" rx="2" ry="2" fill="#ccffcc" stroke="#000000" stroke-width="2" pointer-events="none"/><g text-anchor="middle" font-size="12px"><text x="1103" y="1332" fill="#000000" font-family="Helvetica">TOUCH_3</text></g><path d="M 916 1488 C 919 1485 923 1483 927 1483 L 961 1483 C 965 1483 969 1485 972 1488 L 992 1511 C 993 1512 993 1514 992 1515 L 972 1538 C 969 1541 965 1543 961 1543 L 927 1543 C 923 1543 919 1541 916 1538 L 896 1515 C 896 1514 896 1512 896 1511 L 916 1488 Z" fill="#7ea6e0" stroke="#000000" stroke-width="2" stroke-miterlimit="10" pointer-events="none"/><g text-anchor="middle" font-size="12px"><text x="944" y="1510" fill="#000000" font-family="Helvetica">second</text><text x="944" y="1524" fill="#000000" font-family="Helvetica">finger up</text></g><path d="M 1103 848 L 1103 1302" fill="none" stroke="#000000" stroke-miterlimit="10" pointer-events="none"/><path d="M 1103 1307 L 1100 1300 L 1103 1302 L 1107 1300 Z" fill="#000000" stroke="#000000" stroke-miterlimit="10" pointer-events="none"/><path d="M 802 1488 C 804 1485 808 1483 813 1483 L 846 1483 C 851 1483 855 1485 857 1488 L 877 1511 C 878 1512 878 1514 877 1515 L 857 1538 C 855 1541 851 1543 846 1543 L 813 1543 C 808 1543 804 1541 802 1538 L 782 1515 C 781 1514 781 1512 782 1511 L 802 1488 Z" fill="#ffffff" stroke="#000000" stroke-width="2" stroke-miterlimit="10" pointer-events="none"/><g text-anchor="middle" font-size="12px"><text x="830" y="1510" fill="#000000" font-family="Helvetica">first</text><text x="830" y="1524" fill="#000000" font-family="Helvetica">finger up</text></g><path d="M 849 1593 C 850 1592 850 1590 851 1589 C 852 1589 853 1588 854 1588 L 923 1588 C 924 1588 926 1589 927 1590 C 928 1591 928 1592 928 1593 L 909 1643 C 908 1644 907 1646 907 1647 C 906 1647 905 1648 904 1648 L 834 1648 C 833 1648 832 1647 831 1646 C 830 1645 830 1644 830 1643 Z" fill="#ff6666" stroke="#000000" stroke-width="2" stroke-miterlimit="10" pointer-events="none"/><g text-anchor="middle" font-size="12px"><text x="879" y="1615" fill="#000000" font-family="Helvetica">button 3</text><text x="879" y="1629" fill="#000000" font-family="Helvetica">press</text></g><path d="M 849 1713 C 850 1712 850 1710 851 1709 C 852 1709 853 1708 854 1708 L 923 1708 C 924 1708 926 1709 927 1710 C 928 1711 928 1712 928 1713 L 909 1763 C 908 1764 907 1766 907 1767 C 906 1767 905 1768 904 1768 L 834 1768 C 833 1768 832 1767 831 1766 C 830 1765 830 1764 830 1763 Z" fill="#ff6666" stroke="#000000" stroke-width="2" stroke-miterlimit="10" pointer-events="none"/><g text-anchor="middle" font-size="12px"><text x="879" y="1735" fill="#000000" font-family="Helvetica">button 3</text><text x="879" y="1749" fill="#000000" font-family="Helvetica">release</text></g><path d="M 879 1648 L 879 1702" fill="none" stroke="#000000" stroke-miterlimit="10" pointer-events="none"/><path d="M 879 1707 L 876 1700 L 879 1702 L 883 1700 Z" fill="#000000" stroke="#000000" stroke-miterlimit="10" pointer-events="none"/><path d="M 1074 1348 L 879 1479" fill="none" stroke="#000000" stroke-miterlimit="10" pointer-events="none"/><path d="M 875 1482 L 879 1476 L 879 1479 L 883 1481 Z" fill="#000000" stroke="#000000" stroke-miterlimit="10" pointer-events="none"/><path d="M 1086 1348 L 974 1478" fill="none" stroke="#000000" stroke-miterlimit="10" pointer-events="none"/><path d="M 971 1482 L 973 1475 L 974 1478 L 978 1479 Z" fill="#000000" stroke="#000000" stroke-miterlimit="10" pointer-events="none"/><path d="M 844 1543 L 862 1582" fill="none" stroke="#000000" stroke-miterlimit="10" pointer-events="none"/><path d="M 864 1587 L 858 1582 L 862 1582 L 865 1579 Z" fill="#000000" stroke="#000000" stroke-miterlimit="10" pointer-events="none"/><path d="M 925 1543 L 901 1583" fill="none" stroke="#000000" stroke-miterlimit="10" pointer-events="none"/><path d="M 898 1587 L 899 1579 L 901 1583 L 905 1583 Z" fill="#000000" stroke="#000000" stroke-miterlimit="10" pointer-events="none"/><path d="M 1162 1488 C 1165 1485 1169 1483 1173 1483 L 1207 1483 C 1211 1483 1215 1485 1218 1488 L 1238 1511 C 1239 1512 1239 1514 1238 1515 L 1218 1538 C 1215 1541 1211 1543 1207 1543 L 1173 1543 C 1169 1543 1165 1541 1162 1538 L 1142 1515 C 1142 1514 1142 1512 1142 1511 L 1162 1488 Z" fill="#67ab9f" stroke="#000000" stroke-width="2" stroke-miterlimit="10" pointer-events="none"/><g text-anchor="middle" font-size="12px"><text x="1190" y="1510" fill="#000000" font-family="Helvetica">move &gt; </text><text x="1190" y="1524" fill="#000000" font-family="Helvetica">threshold</text></g><path d="M 1113 1348 L 1173 1477" fill="none" stroke="#000000" stroke-miterlimit="10" pointer-events="none"/><path d="M 1175 1482 L 1169 1477 L 1173 1477 L 1176 1474 Z" fill="#000000" stroke="#000000" stroke-miterlimit="10" pointer-events="none"/><ellipse cx="830" cy="1948" rx="49.50000000000001" ry="29.999999999999996" fill="#ccccff" stroke="#000000" stroke-width="2" pointer-events="none"/><g text-anchor="middle" font-size="12px"><text x="830" y="1952" fill="#000000" font-family="Helvetica">IDLE</text></g><path d="M 1165 1543 L 858 1913" fill="none" stroke="#000000" stroke-miterlimit="10" pointer-events="none"/><path d="M 855 1917 L 857 1910 L 858 1913 L 862 1914 Z" fill="#000000" stroke="#000000" stroke-miterlimit="10" pointer-events="none"/><path d="M 1291 1488 C 1293 1485 1297 1483 1302 1483 L 1335 1483 C 1340 1483 1344 1485 1346 1488 L 1366 1511 C 1367 1512 1367 1514 1366 1515 L 1346 1538 C 1344 1541 1340 1543 1335 1543 L 1302 1543 C 1297 1543 1293 1541 1291 1538 L 1271 1515 C 1270 1514 1270 1512 1271 1511 L 1291 1488 Z" fill="#99ffff" stroke="#000000" stroke-width="2" stroke-miterlimit="10" pointer-events="none"/><g text-anchor="middle" font-size="12px"><text x="1318" y="1517" fill="#000000" font-family="Helvetica">timeout</text></g><path d="M 1127 1348 L 1279 1479" fill="none" stroke="#000000" stroke-miterlimit="10" pointer-events="none"/><path d="M 1283 1482 L 1275 1480 L 1279 1479 L 1280 1475 Z" fill="#000000" stroke="#000000" stroke-miterlimit="10" pointer-events="none"/><path d="M 1285 1543 L 868 1914" fill="none" stroke="#000000" stroke-miterlimit="10" pointer-events="none"/><path d="M 864 1917 L 867 1910 L 868 1914 L 872 1915 Z" fill="#000000" stroke="#000000" stroke-miterlimit="10" pointer-events="none"/><path d="M 1035 1488 C 1037 1485 1041 1483 1046 1483 L 1079 1483 C 1084 1483 1088 1485 1090 1488 L 1110 1511 C 1111 1512 1111 1514 1110 1515 L 1090 1538 C 1088 1541 1084 1543 1079 1543 L 1046 1543 C 1041 1543 1037 1541 1035 1538 L 1015 1515 C 1014 1514 1014 1512 1015 1511 L 1035 1488 Z" fill="#ffb570" stroke="#000000" stroke-width="2" stroke-miterlimit="10" pointer-events="none"/><g text-anchor="middle" font-size="12px"><text x="1062" y="1510" fill="#000000" font-family="Helvetica">third</text><text x="1062" y="1524" fill="#000000" font-family="Helvetica">finger up</text></g><path d="M 1099 1348 L 1071 1477" fill="none" stroke="#000000" stroke-miterlimit="10" pointer-events="none"/><path d="M 1069 1482 L 1067 1474 L 1071 1477 L 1074 1476 Z" fill="#000000" stroke="#000000" stroke-miterlimit="10" pointer-events="none"/><path d="M 1014 1541 L 934 1587" fill="none" stroke="#000000" stroke-miterlimit="10" pointer-events="none"/><path d="M 929 1589 L 933 1583 L 934 1587 L 937 1589 Z" fill="#000000" stroke="#000000" stroke-miterlimit="10" pointer-events="none"/><path d="M 836 793 C 838 790 842 788 847 788 L 880 788 C 885 788 889 790 891 793 L 911 816 C 912 817 912 819 911 820 L 891 843 C 889 846 885 848 880 848 L 847 848 C 842 848 838 846 836 843 L 816 820 C 815 819 815 817 816 816 L 836 793 Z" fill="#ffd966" stroke="#000000" stroke-width="2" stroke-miterlimit="10" pointer-events="none"/><g text-anchor="middle" font-size="12px"><text x="864" y="815" fill="#000000" font-family="Helvetica">first</text><text x="864" y="829" fill="#000000" font-family="Helvetica">finger up</text></g><path d="M 1032 728 L 918 789" fill="none" stroke="#000000" stroke-miterlimit="10" pointer-events="none"/><path d="M 913 792 L 918 785 L 918 789 L 921 791 Z" fill="#000000" stroke="#000000" stroke-miterlimit="10" pointer-events="none"/><path d="M 871 788 L 884 734" fill="none" stroke="#000000" stroke-miterlimit="10" pointer-events="none"/><path d="M 885 729 L 887 737 L 884 734 L 880 735 Z" fill="#000000" stroke="#000000" stroke-miterlimit="10" pointer-events="none"/><ellipse cx="808" cy="1268" rx="49.50000000000001" ry="29.999999999999996" fill="#ccccff" stroke="#000000" stroke-width="2" pointer-events="none"/><g text-anchor="middle" font-size="12px"><text x="808" y="1272" fill="#000000" font-family="Helvetica">IDLE</text></g><path d="M 688 1488 C 691 1485 695 1483 699 1483 L 733 1483 C 737 1483 741 1485 744 1488 L 764 1511 C 765 1512 765 1514 764 1515 L 744 1538 C 741 1541 737 1543 733 1543 L 699 1543 C 695 1543 691 1541 688 1538 L 668 1515 C 668 1514 668 1512 668 1511 L 688 1488 Z" fill="#ffffff" stroke="#000000" stroke-width="2" stroke-miterlimit="10" pointer-events="none"/><g text-anchor="middle" font-size="12px"><text x="716" y="1510" fill="#000000" font-family="Helvetica">fourth</text><text x="716" y="1524" fill="#000000" font-family="Helvetica">finger down</text></g><path d="M 1062 1348 L 770 1487" fill="none" stroke="#000000" stroke-miterlimit="10" pointer-events="none"/><path d="M 766 1489 L 770 1483 L 770 1487 L 773 1490 Z" fill="#000000" stroke="#000000" stroke-miterlimit="10" pointer-events="none"/><path d="M 808 1158 L 808 1232" fill="none" stroke="#000000" stroke-miterlimit="10" pointer-events="none"/><path d="M 808 1237 L 804 1230 L 808 1232 L 811 1230 Z" fill="#000000" stroke="#000000" stroke-miterlimit="10" pointer-events="none"/><path d="M 1441 846 L 1509 886" fill="none" stroke="#000000" stroke-miterlimit="10" pointer-events="none"/><path d="M 1513 888 L 1505 888 L 1509 886 L 1509 882 Z" fill="#000000" stroke="#000000" stroke-miterlimit="10" pointer-events="none"/><path d="M 872 1768 L 838 1912" fill="none" stroke="#000000" stroke-miterlimit="10" pointer-events="none"/><path d="M 837 1917 L 835 1909 L 838 1912 L 842 1911 Z" fill="#000000" stroke="#000000" stroke-miterlimit="10" pointer-events="none"/><path d="M 724 1543 L 820 1912" fill="none" stroke="#000000" stroke-miterlimit="10" pointer-events="none"/><path d="M 821 1917 L 816 1911 L 820 1912 L 823 1909 Z" fill="#000000" stroke="#000000" stroke-miterlimit="10" pointer-events="none"/><rect x="323" y="1128" width="209" height="40" rx="2" ry="2" fill="#ccffcc" stroke="#000000" stroke-width="2" pointer-events="none"/><g text-anchor="middle" font-size="12px"><text x="427" y="1152" fill="#000000" font-family="Helvetica">DRAGGING_OR_DOUBLETAP</text></g><path d="M 571 1058 L 464 1125" fill="none" stroke="#000000" stroke-miterlimit="10" pointer-events="none"/><path d="M 460 1127 L 464 1121 L 464 1125 L 468 1127 Z" fill="#000000" stroke="#000000" stroke-miterlimit="10" pointer-events="none"/><path d="M 200 1213 C 202 1210 206 1208 211 1208 L 244 1208 C 249 1208 253 1210 255 1213 L 275 1236 C 276 1237 276 1239 275 1240 L 255 1263 C 253 1266 249 1268 244 1268 L 211 1268 C 206 1268 202 1266 200 1263 L 180 1240 C 179 1239 179 1237 180 1236 L 200 1213 Z" fill="#99ffff" stroke="#000000" stroke-width="2" stroke-miterlimit="10" pointer-events="none"/><g text-anchor="middle" font-size="12px"><text x="227" y="1242" fill="#000000" font-family="Helvetica">timeout</text></g><path d="M 383 1168 L 282 1214" fill="none" stroke="#000000" stroke-miterlimit="10" pointer-events="none"/><path d="M 277 1216 L 282 1210 L 282 1214 L 285 1216 Z" fill="#000000" stroke="#000000" stroke-miterlimit="10" pointer-events="none"/><path d="M 241 1268 L 274 1342" fill="none" stroke="#000000" stroke-miterlimit="10" pointer-events="none"/><path d="M 276 1347 L 270 1342 L 274 1342 L 276 1339 Z" fill="#000000" stroke="#000000" stroke-miterlimit="10" pointer-events="none"/><path d="M 334 1657 L 775 1916" fill="none" stroke="#000000" stroke-miterlimit="10" pointer-events="none"/><path d="M 779 1918 L 771 1918 L 775 1916 L 775 1912 Z" fill="#000000" stroke="#000000" stroke-miterlimit="10" pointer-events="none"/><path d="M 513 1213 C 516 1210 520 1208 524 1208 L 558 1208 C 562 1208 566 1210 569 1213 L 589 1236 C 590 1237 590 1239 589 1240 L 569 1263 C 566 1266 562 1268 558 1268 L 524 1268 C 520 1268 516 1266 513 1263 L 493 1240 C 493 1239 493 1237 493 1236 L 513 1213 Z" fill="#ffd966" stroke="#000000" stroke-width="2" stroke-miterlimit="10" pointer-events="none"/><g text-anchor="middle" font-size="12px"><text x="541" y="1235" fill="#000000" font-family="Helvetica">first</text><text x="541" y="1249" fill="#000000" font-family="Helvetica">finger up</text></g><path d="M 452 1168 L 498 1204" fill="none" stroke="#000000" stroke-miterlimit="10" pointer-events="none"/><path d="M 502 1207 L 494 1206 L 498 1204 L 499 1200 Z" fill="#000000" stroke="#000000" stroke-miterlimit="10" pointer-events="none"/><path d="M 463 1343 C 463 1342 464 1340 465 1339 C 466 1339 467 1338 468 1338 L 536 1338 C 538 1338 539 1339 540 1340 C 541 1341 541 1342 541 1343 L 522 1393 C 522 1394 521 1396 520 1397 C 519 1397 518 1398 517 1398 L 448 1398 C 446 1398 445 1397 444 1396 C 444 1395 443 1394 444 1393 Z" fill="#ff6666" stroke="#000000" stroke-width="2" stroke-miterlimit="10" pointer-events="none"/><g text-anchor="middle" font-size="12px"><text x="493" y="1365" fill="#000000" font-family="Helvetica">button 1</text><text x="493" y="1379" fill="#000000" font-family="Helvetica">release</text></g><path d="M 462 1478 C 463 1477 463 1475 464 1474 C 465 1474 466 1473 467 1473 L 536 1473 C 537 1473 539 1474 540 1475 C 541 1476 541 1477 541 1478 L 522 1528 C 521 1529 520 1531 520 1532 C 519 1532 518 1533 517 1533 L 447 1533 C 446 1533 445 1532 444 1531 C 443 1530 443 1529 443 1528 Z" fill="#ff6666" stroke="#000000" stroke-width="2" stroke-miterlimit="10" pointer-events="none"/><g text-anchor="middle" font-size="12px"><text x="492" y="1500" fill="#000000" font-family="Helvetica">button 1</text><text x="492" y="1514" fill="#000000" font-family="Helvetica">press</text></g><path d="M 463 1603 C 463 1602 464 1600 465 1599 C 466 1599 467 1598 468 1598 L 536 1598 C 538 1598 539 1599 540 1600 C 541 1601 541 1602 541 1603 L 522 1653 C 522 1654 521 1656 520 1657 C 519 1657 518 1658 517 1658 L 448 1658 C 446 1658 445 1657 444 1656 C 444 1655 443 1654 444 1653 Z" fill="#ff6666" stroke="#000000" stroke-width="2" stroke-miterlimit="10" pointer-events="none"/><g text-anchor="middle" font-size="12px"><text x="493" y="1625" fill="#000000" font-family="Helvetica">btn1</text><text x="493" y="1639" fill="#000000" font-family="Helvetica">release</text></g><path d="M 526 1268 L 495 1332" fill="none" stroke="#000000" stroke-miterlimit="10" pointer-events="none"/><path d="M 493 1337 L 493 1329 L 495 1332 L 499 1332 Z" fill="#000000" stroke="#000000" stroke-miterlimit="10" pointer-events="none"/><path d="M 492 1398 L 492 1467" fill="none" stroke="#000000" stroke-miterlimit="10" pointer-events="none"/><path d="M 492 1472 L 489 1465 L 492 1467 L 496 1465 Z" fill="#000000" stroke="#000000" stroke-miterlimit="10" pointer-events="none"/><path d="M 492 1533 L 492 1592" fill="none" stroke="#000000" stroke-miterlimit="10" pointer-events="none"/><path d="M 492 1597 L 489 1590 L 492 1592 L 496 1590 Z" fill="#000000" stroke="#000000" stroke-miterlimit="10" pointer-events="none"/><path d="M 524 1658 L 793 1914" fill="none" stroke="#000000" stroke-miterlimit="10" pointer-events="none"/><path d="M 797 1917 L 790 1915 L 793 1914 L 794 1910 Z" fill="#000000" stroke="#000000" stroke-miterlimit="10" pointer-events="none"/><path d="M 355 1213 C 357 1210 361 1208 366 1208 L 399 1208 C 404 1208 408 1210 410 1213 L 430 1236 C 431 1237 431 1239 430 1240 L 410 1263 C 408 1266 404 1268 399 1268 L 366 1268 C 361 1268 357 1266 355 1263 L 335 1240 C 334 1239 334 1237 335 1236 L 355 1213 Z" fill="#7ea6e0" stroke="#000000" stroke-width="2" stroke-miterlimit="10" pointer-events="none"/><g text-anchor="middle" font-size="12px"><text x="382" y="1235" fill="#000000" font-family="Helvetica">second</text><text x="382" y="1249" fill="#000000" font-family="Helvetica">finger down</text></g><path d="M 417 1168 L 400 1202" fill="none" stroke="#000000" stroke-miterlimit="10" pointer-events="none"/><path d="M 398 1207 L 398 1199 L 400 1202 L 404 1202 Z" fill="#000000" stroke="#000000" stroke-miterlimit="10" pointer-events="none"/><path d="M 360 1268 L 304 1343" fill="none" stroke="#000000" stroke-miterlimit="10" pointer-events="none"/><path d="M 301 1347 L 302 1339 L 304 1343 L 308 1344 Z" fill="#000000" stroke="#000000" stroke-miterlimit="10" pointer-events="none"/><path d="M 25 1213 C 27 1210 31 1208 36 1208 L 69 1208 C 74 1208 78 1210 80 1213 L 100 1236 C 101 1237 101 1239 100 1240 L 80 1263 C 78 1266 74 1268 69 1268 L 36 1268 C 31 1268 27 1266 25 1263 L 5 1240 C 4 1239 4 1237 5 1236 L 25 1213 Z" fill="#67ab9f" stroke="#000000" stroke-width="2" stroke-miterlimit="10" pointer-events="none"/><g text-anchor="middle" font-size="12px"><text x="52" y="1235" fill="#000000" font-family="Helvetica">move &gt; </text><text x="52" y="1249" fill="#000000" font-family="Helvetica">threshold</text></g><path d="M 344 1168 L 107 1225" fill="none" stroke="#000000" stroke-miterlimit="10" pointer-events="none"/><path d="M 102 1226 L 108 1221 L 107 1225 L 110 1228 Z" fill="#000000" stroke="#000000" stroke-miterlimit="10" pointer-events="none"/><path d="M 101 1265 L 244 1345" fill="none" stroke="#000000" stroke-miterlimit="10" pointer-events="none"/><path d="M 249 1347 L 241 1347 L 244 1345 L 244 1341 Z" fill="#000000" stroke="#000000" stroke-miterlimit="10" pointer-events="none"/><rect x="1101" y="503" width="130" height="40" rx="2" ry="2" fill="#ccffcc" stroke="#000000" stroke-width="2" pointer-events="none"/><g text-anchor="middle" font-size="12px"><text x="1166" y="527" fill="#000000" font-family="Helvetica">HOLD</text></g><path d="M 1241 423 L 1185 498" fill="none" stroke="#000000" stroke-miterlimit="10" pointer-events="none"/><path d="M 1182 502 L 1183 494 L 1185 498 L 1189 499 Z" fill="#000000" stroke="#000000" stroke-miterlimit="10" pointer-events="none"/><path d="M 1102 423 L 1150 498" fill="none" stroke="#000000" stroke-miterlimit="10" pointer-events="none"/><path d="M 1153 502 L 1146 498 L 1150 498 L 1152 494 Z" fill="#000000" stroke="#000000" stroke-miterlimit="10" pointer-events="none"/><path d="M 1219 583 C 1222 580 1226 578 1230 578 L 1264 578 C 1268 578 1272 580 1275 583 L 1295 606 C 1296 607 1296 609 1295 610 L 1275 633 C 1272 636 1268 638 1264 638 L 1230 638 C 1226 638 1222 636 1219 633 L 1199 610 C 1199 609 1199 607 1199 606 L 1219 583 Z" fill="#ffd966" stroke="#000000" stroke-width="2" stroke-miterlimit="10" pointer-events="none"/><g text-anchor="middle" font-size="12px"><text x="1247" y="605" fill="#000000" font-family="Helvetica">first</text><text x="1247" y="619" fill="#000000" font-family="Helvetica">finger up</text></g><path d="M 1185 543 L 1214 573" fill="none" stroke="#000000" stroke-miterlimit="10" pointer-events="none"/><path d="M 1218 577 L 1210 575 L 1214 573 L 1215 570 Z" fill="#000000" stroke="#000000" stroke-miterlimit="10" pointer-events="none"/><path d="M 1278 638 L 1528 884" fill="none" stroke="#000000" stroke-miterlimit="10" pointer-events="none"/><path d="M 1532 887 L 1525 885 L 1528 884 L 1530 880 Z" fill="#000000" stroke="#000000" stroke-miterlimit="10" pointer-events="none"/><path d="M 1072 583 C 1074 580 1078 578 1083 578 L 1116 578 C 1121 578 1125 580 1127 583 L 1147 606 C 1148 607 1148 609 1147 610 L 1127 633 C 1125 636 1121 638 1116 638 L 1083 638 C 1078 638 1074 636 1072 633 L 1052 610 C 1051 609 1051 607 1052 606 L 1072 583 Z" fill="#7ea6e0" stroke="#000000" stroke-width="2" stroke-miterlimit="10" pointer-events="none"/><g text-anchor="middle" font-size="12px"><text x="1099" y="605" fill="#000000" font-family="Helvetica">second</text><text x="1099" y="619" fill="#000000" font-family="Helvetica">finger down</text></g><path d="M 1150 543 L 1127 573" fill="none" stroke="#000000" stroke-miterlimit="10" pointer-events="none"/><path d="M 1124 577 L 1125 569 L 1127 573 L 1131 574 Z" fill="#000000" stroke="#000000" stroke-miterlimit="10" pointer-events="none"/><path d="M 1090 638 L 1077 682" fill="none" stroke="#000000" stroke-miterlimit="10" pointer-events="none"/><path d="M 1075 687 L 1074 679 L 1077 682 L 1081 681 Z" fill="#000000" stroke="#000000" stroke-miterlimit="10" pointer-events="none"/><path d="M 1291 833 L 1508 901" fill="none" stroke="#000000" stroke-miterlimit="10" pointer-events="none"/><path d="M 1513 902 L 1505 904 L 1508 901 L 1507 897 Z" fill="#000000" stroke="#000000" stroke-miterlimit="10" pointer-events="none"/><path d="M 942 564 L 1095 536" fill="none" stroke="#000000" stroke-miterlimit="10" pointer-events="none"/><path d="M 1100 535 L 1094 540 L 1095 536 L 1092 533 Z" fill="#000000" stroke="#000000" stroke-miterlimit="10" pointer-events="none"/></g></svg>